<?xml version="1.0" encoding="UTF-8"?><svg id="Layer_2" xmlns="http://www.w3.org/2000/svg" viewBox="0 0 243.06 211.95"><defs><style>.cls-1{fill:#718366;}</style></defs><g id="Layer_1-2"><path class="cls-1" d="M62.04,208.52c0,.42-.17.94-.42,1.35-.83,1.25-4.16,1.46-6.33,1.46h-4.25c-2.33,0-2.83-1.35-2.83-2.71,0-.21.08-.52.08-.73.17-1.56.92-2.19.92-3.33s.67-4.89.67-6.56c0-3.64.58-4.37.58-7.18,0-2.29-.25-3.33-.25-6.04,0-.83,0-1.56-.17-2.29,0-.31-.08-.62-.08-.94,0-1.35.25-3.33.25-8.85,0-3.33-.42-9.26-.42-11.86,0-2.81.08-1.04.08-1.98,0-.73-.08-1.56-.17-2.5-.17-2.5-.92-3.43-1.42-3.85-.17-.1-.5-.21-.92-.21-.67,0-1.5.1-2.08.1-1.16,0-2.16-.1-3-.1-1,0-3.08.73-4.25,1.04-2.17.52-3.08,2.81-4.66,2.81-.83,0-1.75-1.04-1.75-3.33,0-1.46,1-8.43,1.5-9.16.42-.83,1.16-1.35,1.75-1.35.25,0,.5.1.67.21.83.42,1.75.52,4.83.52,1.91,0,3-.21,3.91-.21,1.42,0,3.33.52,5.08.52.42,0,.67,0,1-.1,1.42-.21,3.25-1.15,4.33-1.15,2,0,3.25.52,4.08.52,1.58,0,3.66-.31,5.49-.31.42,0,.83.1,1.08.1.42.1.75.1,1.16.1,1.08,0,2.17-.21,2.58-.21h.92c1.83,0,2.75-.21,4.91-.21,1.25,0,2.33.21,2.41,2.08.08,2.19,1.33,7.08,1.33,9.47,0,1.14-.33,2.08-1.58,2.08-1.58,0-4.66-3.23-6.08-3.54-.92-.21-3-.62-4.41-.62-.42,0-.67,0-.92.1-1.42.42-2.75.31-3.66.42-1,.1-2,1.46-2,4.16,0,2.19.33,4.68.33,7.91,0,1.35-.25,2.19-.25,3.02,0,1.87.5,1.46.5,2.6,0,1.35-.17,3.12-.17,4.68,0,1.67-.42,2.29-.42,4.27,0,1.35-.08,2.6-.08,4.27,0,.83,0,1.67.08,2.71,0,1.35-.17,3.33-.17,5.41,0,1.56.17,3.12.25,4.58.25,3.95.58,3.33.58,6.76,0,2.71,1.33,4.48,1.33,6.04Z"/><path class="cls-1" d="M97.76,209.46c0,1.46-.83,2.19-2.66,2.19-.42,0-.83,0-1.33-.1-.5-.1-2.08-.1-2.58-.1-.92,0-2.91.1-3.66.1-1.16,0-2.08-.21-2.33-1.25-.08-.42-.17-.94-.17-1.46,0-1.87.58-3.85.67-4.47.17-.73.75-4.79.75-8.33,0-7.29-.17-9.05-.17-10.72,0-.83.08-1.67.17-2.39.08-1.56.17-3.43.17-5s.33-2.91.33-3.75c-.25-1.56-.58-1.87-.75-6.56-.08-3.75-.17-6.35-.17-8.74,0-6.04-.17-9.99-.25-10.51-.42-1.98-.83-3.12-.83-5,0-1.04.33-1.87,1.42-1.87,2.41,0,6.91-.31,8.66-.31,1.08,0,1.91.21,2.41.52.42.31.58.73.58,1.25,0,1.35-.92,3.02-1.33,5.72-.08.52-.17,5.31-.33,7.39-.08,1.56-.5,3.43-.5,5.62,0,.83,0,1.67.17,2.6.33,1.87.5,4.06.5,5.93,0,1.46-.25,2.71-.25,3.64,0,1.46.58,3.23.58,5.1,0,1.25-1,1.98-1,3.75,0,2.08,1.08,2.39,1.08,6.76,0,.94-.33,8.74-.33,10.93,0,2.81,1.16,6.56,1.16,9.05Z"/><path class="cls-1" d="M148.79,180.84c0-2.71.17-5.1.17-7.6,0-2.29-.08-2.91-.08-3.43,0-1.25.08-2.08.08-4.16-.08-1.67-.33-1.87-.33-2.91,0-1.46.33-2.71.33-4.06,0-.94-.42-1.67-.42-2.5,0-1.04-.25-3.64-.25-5.83,0-1.46-.75-4.27-.75-6.04,0-.83.17-1.46.75-1.56.58-.1,1.42-.1,2.33-.1,1.83,0,6.41.1,7.58.1,1.75,0,1.75.94,1.75,2.71s-1.08,4.16-1.25,7.7c-.08,1.77-.92,5.62-.92,7.91,0,1.87.17,2.91.17,3.95,0,1.46.08,3.02.08,4.06,0,1.67-.33,2.81-.33,4.16,0,5,.08,6.04.08,7.6,0,3.95.17,8.33.17,12.18,0,3.33-.75,5.72-.75,8.22,0,1.15.33,2.08.33,4.27-.08,3.02-1.16,4.37-2.58,5.83-.33.42-1.83.62-2.5.62-1.75,0-5.58-2.19-6.16-3.54-.75-1.87-3.16-4.37-3.5-6.56-.42-2.19-.92-1.15-2.16-3.02-2.08-3.95-4-8.53-6.16-11.34-2.66-3.54-4.91-8.12-5.91-10.61-1.33-3.43-1.83-4.06-2.5-5.2-.83-1.15-2.41-2.29-3.66-4.16-.5-.83-3.58-6.97-4.25-8.12,0,1.87.17,3.12.17,4.37,0,2.81-.42,6.97-.42,9.37,0,4.58.67,3.95.67,6.97,0,1.04-.83,1.77-.83,3.43.17,2.91.33,3.54.33,5.52,0,1.56.5,1.98.5,3.54,0,2.19-.33,4.16-.33,6.04,0,1.77,0,3.85.58,5.31.25,1.67,1,2.71,1,4.58-.17,2.71-1,2.81-3.5,3.02-.5,0-2.41.1-2.66.1-.83.1-2.41.1-3.16.1-1.42,0-2.58-.21-3.08-1.25-.17-.31-.25-.73-.25-1.14,0-1.67.92-3.54.92-3.75s.5-2.81.83-5c0-.94-.25-1.56-.25-2.19,0-1.35.33-2.91.42-4.27.17-1.67.42-2.39.42-3.43-.17-1.98-.92-5.93-.92-8.22,0-1.35.08-3.54.08-5.2,0-3.12.83-5,.83-5.62,0-2.19-.75-3.75-.75-5.62s0-6.24-.08-11.55c0-1.35-.58-4.47-.58-7.6,0-1.77.17-3.43.75-4.79.33-.83,7.24-.83,7.99-.83.42,0,1.58.42,2,.42,1,0,1.42.83,2.75,2.71,1.33,1.87,1.42,3.23,3,5.1,2.17,2.5,2.41,4.68,3.16,5.52s1.08,1.87,2.41,3.43c1.17,1.56,2.66,4.89,3.58,6.56,1,1.67,2.75,3.75,3,5.1.17,1.35,1.33,3.02,2.16,4.47.83,1.46.67,2.19,1.33,3.12.83.94,3.91,5,4.33,6.45.5,1.46,3.16,5.31,4.33,6.87-.08-3.64-.08-6.97-.08-10.2Z"/><path class="cls-1" d="M201.91,153.57c-1.41-.73-3.83-.94-6.08-1.15-1.42-.1-2-.83-3.08-.94-1.33,0-2.58.52-3.25.52-4,0-4.5.21-6.08.21-2,0-2.91.1-3.66.62-.92.52-1,2.39-1,4.27,0,1.67-.75,1.87-.75,2.6,0,.1.5,1.77.5,4.37,0,1.56.33,9.16.33,10.09,0,1.15,2.16,1.98,3.66,2.19,1.25.21.75.31,1.83.31,1.58,0,2.17-.52,3.41-.52,1.17,0,5.08-.52,7.74-.52,1.58,0,4.16-.83,5.16-.83,1.17,0,1.67,1.25,1.67,1.87,0,2.81-1.41,10.2-3.5,10.2-2.25,0-3.75-1.67-5.83-1.67-4.74,0-5.16.31-9.32.31-2.25,0-2.41-.1-3.41-.1-1.42,0-1.42,1.25-1.42,2.39,0,2.71-.33,4.06-.33,6.56,0,.94.42,1.67.42,2.5,0,3.12-.08.94-.08,1.35,0,2.39,2.91,2.5,4.58,2.5,3.08,0,5.24.52,7.91.52,1.25,0,3.33-.52,4.83-.52,1.58,0,2.75-.42,3.83-.42,1.42,0,5.66-1.15,6.74-1.98,1.67-1.25,2.75-2.08,3.75-2.08.58,0,.92.52.92,1.35,0,2.19-1.42,8.64-1.5,11.03-.08,2.29-1.83,2.29-3.66,2.29-1.58,0-4.33-.73-6.58-.94-1.16,0-2.08.62-3,.62-1,0-1.25-.31-2.41-.31-1.92,0-3.41.62-4.91.62-1.25,0-2.41-.1-3.75-.21-2.5-.1-6.25,0-7.24-.21-.5-.1-1.08-.21-1.67-.21s-1.83.1-2.5.31c-.92,0-2.58.73-3.41.73s-1.75-.31-2.33-1.25c-.08-.21-.17-.73-.17-1.35,0-2.81,1-9.05,1-10.72,0-1.46-.25-2.39-.25-7.08,0-1.35-.17-10.09-.17-14.36s.33-12.49.33-14.88c0-.42-.08-.83-.08-1.25-.25-3.02-.33-5.31-.33-7.7,0-.73-.42-2.91-.42-5,0-1.35.17-2.71.75-3.54,1.25-1.87,3.91-1.87,5-2.08,1.67,0,3,1.04,4.41,1.04,1.58,0,6.08-.42,8.07-.42,2.58,0,5,.42,7.66.42,2.91,0,7.49-.52,10.99-.52h1.92c1.58,0,2.83.21,2.83,2.19,0,2.39-1.58,6.56-2,8.95-.17,1.25-.83,1.87-1.83,1.87-1.25-.1-2.66-1.35-4.25-2.08Z"/><path class="cls-1" d="M30.39,66.6c0,.42-.17.94-.42,1.35-.83,1.25-4.16,1.46-6.33,1.46h-4.25c-2.33,0-2.83-1.35-2.83-2.71,0-.21.08-.52.08-.73.17-1.56.92-2.19.92-3.33s.67-4.89.67-6.56c0-3.64.58-4.37.58-7.18,0-2.29-.25-3.33-.25-6.04,0-.83,0-1.56-.17-2.29,0-.31-.08-.62-.08-.94,0-1.35.25-3.33.25-8.85,0-3.33-.42-9.26-.42-11.86,0-2.81.08-1.04.08-1.98,0-.73-.08-1.56-.17-2.5-.17-2.5-.92-3.43-1.42-3.85-.17-.1-.5-.21-.92-.21-.67,0-1.5.1-2.08.1-1.17,0-2.17-.1-3-.1-1,0-3.08.73-4.25,1.04-2.16.52-3.08,2.81-4.66,2.81-.83,0-1.75-1.04-1.75-3.33C0,9.47,1,2.5,1.5,1.77c.42-.83,1.17-1.35,1.75-1.35.25,0,.5.1.67.21.83.42,1.75.52,4.83.52,1.92,0,3-.21,3.91-.21,1.42,0,3.33.52,5.08.52.42,0,.67,0,1-.1,1.42-.21,3.25-1.15,4.33-1.15,2,0,3.25.52,4.08.52,1.58,0,3.66-.31,5.5-.31.42,0,.83.1,1.08.1.42.1.75.1,1.17.1,1.08,0,2.16-.21,2.58-.21h.92c1.83,0,2.75-.21,4.91-.21,1.25,0,2.33.21,2.41,2.08.08,2.19,1.33,7.08,1.33,9.47,0,1.14-.33,2.08-1.58,2.08-1.58,0-4.66-3.23-6.08-3.54-.92-.21-3-.62-4.41-.62-.42,0-.67,0-.92.1-1.42.42-2.75.31-3.66.42-1,.1-2,1.46-2,4.16,0,2.19.33,4.68.33,7.91,0,1.35-.25,2.19-.25,3.02,0,1.87.5,1.46.5,2.6,0,1.35-.17,3.12-.17,4.68,0,1.67-.42,2.29-.42,4.27,0,1.35-.08,2.6-.08,4.27,0,.83,0,1.67.08,2.71,0,1.35-.17,3.33-.17,5.41,0,1.56.17,3.12.25,4.58.25,3.95.58,3.33.58,6.76,0,2.71,1.33,4.48,1.33,6.04Z"/><path class="cls-1" d="M52.89,37.99c1.16-4.27,3.08-7.91,4.5-12.28.58-1.77,1.67-1.25,2.08-3.85.25-2.19.25-3.33,1.17-5.31.75-2.6,1.75-4.06,2.25-6.35.17-.62,1.58-3.12,1.67-3.43,1.42-5,3.91-6.76,5.74-6.76,2,0,5.33.83,6.24,4.06,1,3.54,1.08,3.54,1.91,6.04.75,2.5,1,4.37,2.25,6.76,1.25,2.19,1.42,4.37,1.83,7.18,1.33,2.5,2.33,6.04,3.91,9.05.58,1.25,1,3.75,1.42,4.68,2.66,5,4.25,12.8,9.24,23.73.92,2.19,2.08,2.81,2.08,5.62,0,1.87-1.08,2.19-2.75,2.19-.83,0-2.66-.1-3.75-.1s-4.08.1-4.83.1c-1.33,0-2-.31-2-1.77,0-1.56-.92-3.75-.92-5.1,0-.21-2.33-5-2.66-6.35-1.17,0-4.33-.1-5.16-.1-1.91,0-3.66-.1-4.58-.21-.5-.1-.75-.1-1.5-.1-1.75,0-4.08.21-6.58.21-1.33-.1-2-.1-3-.1-1.58,0-2.5.52-4.33.73-.92,3.23-1.75,4.79-1.75,6.14,0,1.77-.42.94-.42,4.27,0,2.39-3.91,2.71-5.99,2.71h-3.25c-2.91,0-3.75-.42-3.75-2.29s.42-1.56,1.75-4.68c1.33-3.12,2.91-4.58,3.33-6.97.17-.83,2.41-8.85,2.91-10.2.58-1.15,2.5-5.52,2.91-7.49ZM66.46,26.43c0,1.56-.08,1.77-.08,1.98-1.25,3.02-1.75,4.89-2.75,7.49-.92,2.5-3.33,8.12-3.33,10.09,3.16,0,1.67.21,2.75.21.58,0,1.33.31,2.33.31.58,0,1.67-.73,1.75-.73.83-.1,1.67-.21,3.16-.21,2.41,0,3.83.73,5.99.73.33,0,1.58,0,3.25-.1-.5-1.25-.92-3.43-1.42-5-.33-1.56-2.5-7.7-3.33-9.68-.42-2.19-3-9.68-4.08-14.15-1.33,1.98-2.75,7.8-4.25,9.05Z"/><path class="cls-1" d="M109.67,0c.5,0,5,.42,5.25.42.33,0,3.25-.1,4-.1,1,0,1.83-.31,4.41-.31,3.91.1,10.41.31,12.07,1.14,2,.94,2.17,1.04,3.16,1.67,3.33,1.67,4.08,2.5,5.83,6.76.42.94.92,2.19.92,4.48,0,3.43-.83,6.56-2.33,8.85-1.58,2.6-3.16,4.16-3.16,4.68,0,1.77,2.5,1.46,4.83,3.23,2.08,1.56,3.91,4.37,4.08,5,.33.83.75,2.19,1.25,3.23.5,1.14,1.08,4.16,1.08,5.52,0,3.23-.33,6.66-1.25,8.33-.75,1.77-.58,3.02-1.25,4.27-1.25,2.6-3.25,4.06-4.58,6.66-2.33,3.02-5.99,4.58-9.91,4.58-1.75.62-4.91,1.46-10.57,1.46s-7.33-.52-8.99-.52c-.83,0-2.17-.62-3.16-.62-.67,0-1.17.42-2,.42-.92,0-2.83,0-3.58-1.15-.58-.94-.75-2.29-.75-3.95,0-2.71.5-6.14.5-8.74,0-2.81.25-2.19.75-7.91,0-1.04-.17-2.71-.17-3.54,0-1.04.08-2.19.08-3.75,0-.73,0-1.67-.08-2.6,0-1.04.5-1.67.5-2.91,0-1.14-.42-2.08-.42-3.54,0-1.14.25-2.5.25-3.75,0-.52-.08-1.04-.17-1.46-.17-1.15-.08-1.87-.42-3.54,0-1.04.42-2.39.42-3.23,0-1.04-.58-3.85-.58-5,0-4.48-.42-7.7-.42-9.89,0-.94.08-1.77.33-2.29.67-1.35,2.58-1.87,4.08-1.87ZM119.75,30.28c.67-.52,4.16-2.29,6.66-3.12,3.66-1.25,3.16-2.91,5.5-4.48,1.75-1.14,2.91-5.31,2.91-7.8,0-3.64-3.83-5.41-6.41-5.41-1.16,0-2.5.31-3.66.31-.58-.1-1.58-.31-2.33-.31-.83,0-2.16.21-3.25.21-1.67,0-3.25-.83-3.25,6.04,0,2.08-.25,5-.25,7.39s.5,4.58.5,8.74c2.33-.52,3.16-1.25,3.58-1.56ZM126.32,37.47c-2.41.83-5.58,2.08-7.49,3.43-.92.73-.67.83-2.33,1.56,0,1.77.5,5.31.5,6.45,0,1.56-.42.73-.42,9.16,0,1.25.75,1.46,1.75,1.98.33.1.58.1,1,.1,1.08,0,.58-.21,3.66-.21s3.83,0,5.33-.1c.75,0,1.08.1,1.33.1.92,0,1.67-.62,3.41-.62,1.58,0,4.41-2.6,5.66-4.79.58-1.04,1.92-4.79,1.92-6.24s0-3.96-.42-5.31c-.33-1.46-.33-4.58-3.58-6.66-3.08-2.08-6.66,0-10.33,1.15Z"/><path class="cls-1" d="M169.54,12.49c0,.73,0,1.46.08,2.29.17,2.39.33,5.1.33,7.8,0,1.15,0,2.19-.08,2.81-.25,2.29-.08,6.76-.67,8.74-.08.42-.17.94-.17,1.25,0,1.15.5,1.98.5,3.64,0,2.08-.67,4.16-.67,5.83,0,1.77.75,3.54.75,5,0,1.25-.25,2.39-.25,3.54s0,1.67.17,2.19c.33,1.15,1.25,2.91,3.25,3.12,2.5,0,1.58-.21,2.66-.21,2.5,0,4.08-.52,5.08-.62,1.58,0,2.91.21,4,.21.67,0,1.25-.1,1.58-.31,1.67,0,5.24-2.71,7.49-2.71,1,0,1.33.73,1.33,1.87,0,1.46-.58,6.35-1.16,8.43-.83,3.02-1.42,3.75-4.08,3.75-1.16,0-5.74-1.25-8.16-1.25s-5.08-.1-6.66-.1c-1.33,0-2.75.42-4.33.42-1.25,0-2-.21-2.83-.21-1.75,0-4.25,0-5.99.73-.33.1-.92.21-1.67.21-1.42,0-3.08-.31-3.16-1.56,0-2.29,1-4.37,1.17-7.91.08-.94.33-2.91.33-3.54,0-.83.08-6.56.08-7.08,0-.94.42-1.46.42-2.19,0-.83-.42-1.46-.42-2.39,0-.83-.08-2.5-.08-3.12,0-3.23.42-6.14.42-9.05-.08-3.54-.17-5.31-.17-7.08,0-1.46.08-2.81.17-3.85.17-1.35.17-2.39.17-5.1,0-1.56-.33-3.43-.33-5s-.42-4.68-.92-7.18c-.08-.31-.08-.73-.08-1.04,0-1.35.58-2.71,2.17-2.71,1.5,0,5.24.42,6.83.42,2.33.1,4.16-.21,4.16.83,0,2.91-.17,3.23-.5,6.56-.17,1.35-.75,2.5-.75,4.58Z"/><path class="cls-1" d="M233.56,11.66c-1.41-.73-3.83-.94-6.08-1.15-1.42-.1-2-.83-3.08-.94-1.33,0-2.58.52-3.25.52-4,0-4.5.21-6.08.21-2,0-2.91.1-3.66.62-.92.52-1,2.39-1,4.27,0,1.67-.75,1.87-.75,2.6,0,.1.5,1.77.5,4.37,0,1.56.33,9.16.33,10.09,0,1.15,2.16,1.98,3.66,2.19,1.25.21.75.31,1.83.31,1.58,0,2.17-.52,3.41-.52,1.17,0,5.08-.52,7.74-.52,1.58,0,4.16-.83,5.16-.83,1.17,0,1.67,1.25,1.67,1.87,0,2.81-1.41,10.2-3.5,10.2-2.25,0-3.75-1.67-5.83-1.67-4.74,0-5.16.31-9.32.31-2.25,0-2.41-.1-3.41-.1-1.42,0-1.42,1.25-1.42,2.39,0,2.71-.33,4.06-.33,6.56,0,.94.42,1.67.42,2.5,0,3.12-.08.94-.08,1.35,0,2.39,2.91,2.5,4.58,2.5,3.08,0,5.24.52,7.91.52,1.25,0,3.33-.52,4.83-.52,1.58,0,2.75-.42,3.83-.42,1.42,0,5.66-1.15,6.74-1.98,1.67-1.25,2.75-2.08,3.75-2.08.58,0,.92.52.92,1.35,0,2.19-1.42,8.64-1.5,11.03-.08,2.29-1.83,2.29-3.66,2.29-1.58,0-4.33-.73-6.58-.94-1.16,0-2.08.62-3,.62-1,0-1.25-.31-2.41-.31-1.92,0-3.41.62-4.91.62-1.25,0-2.41-.1-3.75-.21-2.5-.1-6.25,0-7.24-.21-.5-.1-1.08-.21-1.67-.21s-1.83.1-2.5.31c-.92,0-2.58.73-3.41.73s-1.75-.31-2.33-1.25c-.08-.21-.17-.73-.17-1.35,0-2.81,1-9.05,1-10.72,0-1.46-.25-2.39-.25-7.08,0-1.35-.17-10.09-.17-14.36s.33-12.49.33-14.88c0-.42-.08-.83-.08-1.25-.25-3.02-.33-5.31-.33-7.7,0-.73-.42-2.91-.42-5,0-1.35.17-2.71.75-3.54,1.25-1.87,3.91-1.87,5-2.08,1.67,0,3,1.04,4.41,1.04,1.58,0,6.08-.42,8.07-.42,2.58,0,5,.42,7.66.42,2.91,0,7.49-.52,10.99-.52h1.92c1.58,0,2.83.21,2.83,2.19,0,2.39-1.58,6.56-2,8.95-.17,1.25-.83,1.87-1.83,1.87-1.25-.1-2.66-1.35-4.25-2.08Z"/><path class="cls-1" d="M100.18,83.19c.39,0,.79-.11,1.18-.21,3.8-.75,7.6-1.93,11-1.93,4.58,0,9.69,1.61,14.67,1.61s9.95-1.29,14.54-1.29c1.97,0,4.06.96,5.5.96,1.18,0,2.23-.54,3.28-1.5-1.97-2.47-7.47-2.89-9.95-2.89-4.19,0-9.43,1.5-14.41,1.5-4.45,0-8.64-1.72-12.83-1.72-4.58,0-14.67,1.4-14.67,3.97,0,.97,1.05,1.5,1.7,1.5Z"/><path class="cls-1" d="M125.98,129.81c-4.45,0-8.64-1.71-12.83-1.71-4.58,0-14.67,1.39-14.67,3.97,0,.96,1.05,1.5,1.7,1.5.39,0,.79-.11,1.18-.21,3.8-.75,7.6-1.93,11-1.93,4.58,0,9.69,1.61,14.67,1.61s9.95-1.29,14.54-1.29c1.97,0,4.06.97,5.5.97,1.18,0,2.23-.54,3.28-1.5-1.97-2.46-7.47-2.89-9.95-2.89-4.19,0-9.43,1.5-14.41,1.5Z"/><path class="cls-1" d="M165.4,118.02c-.92,0-1.57.43-1.97,1.61-1.18,2.46-7.21,3.11-10.74,3.11-4.19,0-8.12-2.04-12.18-2.04-3.4,0-6.94,1.5-10.61,1.5-4.97,0-10.74-1.71-15.32-1.71-6.68,0-13.75,2.36-20.7,2.36-2.88,0-5.63-.21-8.51-.86-.92-1.29-1.57-3.32-4.32-3.32-1.57,0-2.23.86-2.23,1.39,0,4.4,6.94,6.43,11.26,6.43.52,0,1.05,0,1.7-.11,5.11-.75,10.61,0,15.72-1.39,1.83-.53,3.8-.64,5.63-.64,5.5,0,11,1.61,16.37,1.61,2.62,0,5.24-.32,7.86-1.18.39-.11.92-.21,1.44-.21,4.19,0,11.27,1.82,16.64,1.82,4.85-.53,13.1-2.89,13.1-6.22,0-1.07-1.57-2.14-3.14-2.14Z"/><path class="cls-1" d="M78.04,93.48c.92,0,2.49-1.18,2.49-2.14,0-.43-.26-1.18-.39-2.04,2.23-.11,4.19-.64,6.42-.64.52,0,1.05,0,1.57.11,6.02.86,12.83,1.18,18.99,1.18,1.83,0,3.54-.21,5.24-.21,4.19,0,8.38.32,12.57.32,10.21,0,19.91-2.14,29.99-2.14,3.27,0,8.38-.53,8.9,2.68.26,1.18,1.57,1.5,3.01,1.5,1.57,0,2.09-1.28,2.09-2.46,0-5.57-7.86-4.93-13.36-4.93-6.15,0-12.31,1.39-18.46,1.61-5.76.21-11.66.64-17.42.96-10.74,0-23.18-1.61-34.19-1.61-4.85,0-9.95.43-9.95,5.15,0,1.61,1.18,2.68,2.49,2.68Z"/><path class="cls-1" d="M85.66,113.56c.15-.98.44-1.84.87-2.67.44-1.03,1.31-1.58,3.21-1.35,2.04.16,4.09.22,5.98.15q3.94-.21,5.98,2.78l.73,1.14c.88.86,1.61,1.7,2.63,2.38,1.61.89,2.77.6,2.92-.69,0-.4-.15-.93-.44-1.39-.73-1.24-1.61-2.4-2.19-3.61-2.04-4.4-5.11-8.67-7.88-12.89-.73-1.24-2.04-2.48-3.5-3.55-1.75-1.32-3.79-1.18-4.38.23l-2.04,5.48-6.27,13.9c.44.48.58,1.51,2.34,1.62,1.61.18,1.75-.7,2.04-1.55ZM93.4,98.1c3.8,2.59,3.5,5.46,5.84,8.39l-9.49-1.69c.88-2.36,1.31-4.81,3.65-6.71Z"/><path class="cls-1" d="M131.05,110.54c-.15-.03-.44.02-.73.07-1.9-2.15-4.09-4.25-5.99-6.3-1.46-1.67-2.77-3.42-4.23-5.19-1.02-1.09-2.19-2.3-3.36-3.32-1.02-.79-2.34-1.32-3.5-.93-1.17.3-2.04.85-1.75,2.11,1.32,5.88,1.75,11.6.44,17.01-.15.28-.29.55,0,.71.58.71,1.17,1.62,2.04,1.98.58.3,1.75-.29,2.33-.69.29-.15.29-.75.29-1.16,0-2.32-.15-4.76-.15-7.18,0-2.02.14-4.01.29-6.2,1.02.48,1.31.53,1.46.66,3.36,3.92,6.71,7.85,10.22,11.8.44.58.88,1.16,1.61,1.5,1.02.58,2.19,1.09,3.07,1.15,1.46.16,2.19-.52,2.19-1.53,0-1.92.15-3.91-.15-5.77-.58-2.52-.15-4.66.44-6.88.44-1.84.58-3.73.73-5.62,0-1.11-1.02-1.69-2.48-2.05-1.46-.26-2.04.34-2.19,1.23-.15.78,0,1.61,0,2.42l-.58,7.76v4.44Z"/><path class="cls-1" d="M143.46,111.13c-.15.78-.29,1.66-.15,2.59.29,1.97,1.75,3.13,4.38,3.1,4.96-.02,9.63-.2,13.72-1.9,2.63-1.14,4.67-2.5,5.25-4.81.29-1.06.15-2.29.29-3.48l-.15-.03c0-.91.15-1.79,0-2.72-.29-2.57-2.19-5.03-5.26-6.78-3.5-1.93-7.59-3.47-11.38-4.95-2.48-1.05-4.67-.43-5.11,1.31-.15.98-.44,1.94-.15,2.9,1.02,3.51,0,6.55-.14,9.75,0,1.81-.87,3.37-1.31,5.01ZM150.46,95.64c4.67,1.53,9.2,3.05,11.39,6.76,2.48,4.27.44,9.96-6.13,10.5-1.9.17-3.5.99-6.57-.06-.15-5.77-1.17-11.7,1.31-17.21Z"/></g></svg>